<svg fill="currentColor" xmlns="http://www.w3.org/2000/svg" viewBox="0 0 512 512">
  <path d="M44.45 252.59l37.11-37.1c9.84-9.84 26.78-3.3 27.29 10.6a184.45 184.45 0 009.69 52.72 16.08 16.08 0 01-3.78 16.61l-13.09 13.09c-28 28-28.9 73.66-1.15 102a72.07 72.07 0 00102.32.51L270 343.79A72 72 0 00270 242a75.64 75.64 0 00-10.34-8.57 16 16 0 01-6.95-12.6A39.86 39.86 0 01264.45 191l21.06-21a16.06 16.06 0 0120.58-1.74A152.05 152.05 0 01327 400l-.36.37-67.2 67.2c-59.27 59.27-155.7 59.26-215 0s-59.26-155.72.01-214.98z" opacity=".4"/>
  <path d="M410.33 203.49c28-28 28.9-73.66 1.15-102a72.07 72.07 0 00-102.32-.49L242 168.21A72 72 0 00242 270a75.64 75.64 0 0010.34 8.57 16 16 0 016.94 12.6A39.81 39.81 0 01247.55 321l-21.06 21.05a16.07 16.07 0 01-20.58 1.74A152.05 152.05 0 01185 112l.36-.37 67.2-67.2c59.27-59.27 155.7-59.26 215 0s59.27 155.7 0 215l-37.11 37.1c-9.84 9.84-26.78 3.3-27.29-10.6a184.45 184.45 0 00-9.69-52.72 16.08 16.08 0 013.78-16.61z"/>
</svg>
