<?xml version="1.0" encoding="UTF-8"?>
<svg width="1000px" height="512px" viewBox="0 0 1000 512" version="1.1" xmlns="http://www.w3.org/2000/svg" xmlns:xlink="http://www.w3.org/1999/xlink">
    <!-- Generator: Sketch 61.2 (89653) - https://sketch.com -->
    <title>Logo Text</title>
    <desc>Created with Sketch.</desc>
    <defs>
        <linearGradient x1="50%" y1="100%" x2="50%" y2="3.061617e-15%" id="linearGradient-1">
            <stop stop-color="#55F3DE" offset="0%"></stop>
            <stop stop-color="#55B9F3" offset="82.4236727%"></stop>
            <stop stop-color="#556AF3" offset="100%"></stop>
        </linearGradient>
        <linearGradient x1="50%" y1="108.464716%" x2="50%" y2="0%" id="linearGradient-2">
            <stop stop-color="#55F3DE" offset="0%"></stop>
            <stop stop-color="#55B9F3" offset="51.6179265%"></stop>
            <stop stop-color="#556AF3" offset="100%"></stop>
        </linearGradient>
    </defs>
    <g id="Logo-Text" stroke="none" stroke-width="1" fill="none" fill-rule="evenodd">
        <g id="pencil-outline" transform="translate(53.000000, 146.000000)" stroke-linecap="round" stroke-linejoin="round" stroke-width="20">
            <polygon id="Path" stroke="url(#linearGradient-1)" points="172.964152 35 13.2548412 195.066615 0 221 25.927622 207.745159 186 48.0358482"></polygon>
            <path d="M205.139945,2.71956568 L192,15.8568789 L205.139945,29 L218.27989,15.8568789 C221.906703,12.2284138 221.906703,6.34803082 218.27989,2.71956568 L218.27989,2.71956568 C214.650698,-0.906521893 208.769137,-0.906521893 205.139945,2.71956568 Z" id="Path" stroke="#556AF3"></path>
        </g>
        <path d="M346.654545,348 L346.654545,274.182524 C346.654545,261.708738 350.218182,251.798058 357.345455,244.450485 C364.472727,237.102913 373.975758,233.429126 385.854545,233.429126 C396.036364,233.429126 403.50303,236.205825 408.254545,241.759223 C413.006061,247.312621 415.381818,256.069903 415.381818,268.031068 L415.381818,268.031068 L415.381818,348 L436,348 L436,267.005825 C436,233.001942 420.642424,216 389.927273,216 C379.066667,216 369.478788,218.691262 361.163636,224.073786 C354.656126,228.286197 349.603712,234.042285 346.006393,241.342052 L345.586869,242.214887 L343.6,219.075728 L324,219.075728 C324.848485,225.056311 325.4,231.079612 325.654545,237.145631 C325.909091,243.21165 326.036364,249.234951 326.036364,255.215534 L326.036364,255.215534 L326.036364,348 L346.654545,348 Z M530.5,349 C542.701681,349 553.335784,346.241379 562.402311,340.724138 C571.468838,335.206897 578.501751,327.405172 583.50105,317.318966 C588.50035,307.232759 591,295.293103 591,281.5 C591,267.87931 588.50035,255.982759 583.50105,245.810345 C578.501751,235.637931 571.468838,227.793103 562.402311,222.275862 C553.335784,216.758621 542.701681,214 530.5,214 C518.298319,214 507.664216,216.758621 498.597689,222.275862 C489.531162,227.793103 482.498249,235.637931 477.49895,245.810345 C472.49965,255.982759 470,267.87931 470,281.5 C470,295.293103 472.49965,307.232759 477.49895,317.318966 C482.498249,327.405172 489.531162,335.206897 498.597689,340.724138 C507.664216,346.241379 518.298319,349 530.5,349 Z M529.62701,333 C516.926045,333 507.146302,328.736434 500.287781,320.209302 C493.42926,311.682171 490,299.236003 490,282.870801 C490,266.850129 493.513934,254.533161 500.541801,245.919897 C507.569668,237.306632 517.264737,233 529.62701,233 C541.989282,233 551.642015,237.306632 558.585209,245.919897 C565.528403,254.533161 569,266.850129 569,282.870801 C569,299.236003 565.57074,311.682171 558.712219,320.209302 C551.853698,328.736434 542.158628,333 529.62701,333 Z M668.498452,349 C671.924665,349 675.051084,348.785429 677.877709,348.356287 C680.704334,347.927146 683.573787,347.283433 686.486068,346.42515 L686.486068,346.42515 L686.486068,328.658683 C683.916409,329.516966 681.603715,330.117764 679.547988,330.461078 C677.49226,330.804391 675.179567,330.976048 672.609907,330.976048 C668.327141,330.976048 664.472652,330.246507 661.04644,328.787425 C657.620227,327.328343 654.922085,324.710579 652.952012,320.934132 C650.98194,317.157685 649.996904,311.836327 649.996904,304.97006 L649.996904,304.97006 L649.996904,234.161677 L687,234.161677 L687,217.682635 L649.996904,217.686211 L649.996904,177 L629.182663,184.467066 L629.182663,217.686211 L604,217.682635 L604,234.161677 L629.182663,234.161677 L629.182663,307.802395 C629.182663,321.044482 632.487985,331.094281 639.098631,337.95179 L639.846749,338.700599 C646.95614,345.566866 656.506708,349 668.498452,349 Z M735,188 L735,165 L710,165 L710,188 L735,188 Z M734,348 L734,218 L714,218 L714,348 L734,348 Z M876,348 L876,331.459245 L792.668431,331.459245 L873.178824,233.248509 L873.178824,218 L769.821176,218 L769.821176,234.540755 L848.229935,234.540755 L767,333.526839 L767,348 L876,348 Z" id="notiz" fill="url(#linearGradient-2)" fill-rule="nonzero"></path>
    </g>
</svg>