<?xml version="1.0" encoding="UTF-8"?>
<svg width="1000px" height="512px" viewBox="0 0 1000 512" version="1.1" xmlns="http://www.w3.org/2000/svg" xmlns:xlink="http://www.w3.org/1999/xlink">
    <!-- Generator: Sketch 61.2 (89653) - https://sketch.com -->
    <title>Logo Text</title>
    <desc>Created with Sketch.</desc>
    <defs>
        <linearGradient x1="50%" y1="100%" x2="50%" y2="3.061617e-15%" id="linearGradient-1">
            <stop stop-color="#55F3DE" offset="0%"></stop>
            <stop stop-color="#55B9F3" offset="82.4236727%"></stop>
            <stop stop-color="#556AF3" offset="100%"></stop>
        </linearGradient>
    </defs>
    <g id="Logo-Text" stroke="none" stroke-width="1" fill="none" fill-rule="evenodd">
        <g id="Group" transform="translate(37.000000, 147.000000)">
            <g id="pencil-outline" transform="translate(101.500000, 109.500000) scale(-1, 1) translate(-101.500000, -109.500000) translate(0.000000, 8.000000)" stroke-linecap="round" stroke-linejoin="round" stroke-width="18">
                <polygon id="Path" stroke="url(#linearGradient-1)" points="158.689404 32.3505976 12.1609179 179.2069 0 203 23.7878129 190.839082 170.649402 44.310596"></polygon>
                <path d="M188.403694,2.50286722 L176.310757,14.5933826 L188.403694,26.689243 L200.496631,14.5933826 C203.834456,11.2540382 203.834456,5.84221163 200.496631,2.50286722 L200.496631,2.50286722 C197.156618,-0.834289073 191.743708,-0.834289073 188.403694,2.50286722 Z" id="Path" stroke="#556AF3"></path>
            </g>
            <path d="M299.875671,217.189591 L299.875671,129.722077 C299.875671,114.941687 304.103305,103.198364 312.558572,94.4921067 C321.013839,85.7858495 332.287529,81.432721 346.379641,81.432721 C358.458595,81.432721 367.316494,84.7228763 372.953339,91.3031869 C378.590183,97.8834976 381.408606,108.260141 381.408606,122.433118 L381.408606,122.433118 L381.408606,217.189591 L405.868486,217.189591 L405.868486,121.218291 C405.868486,80.9265432 387.649398,60.7806691 351.211223,60.7806691 C338.327006,60.7806691 326.952658,63.9695889 317.08818,70.3474284 C309.368153,75.3387811 303.374343,82.159263 299.106751,90.8088742 L298.609059,91.8431098 L296.251985,64.4251489 L273,64.4251489 C274.006579,71.5116373 274.660856,78.6487434 274.96283,85.8364673 C275.264804,93.0241912 275.415791,100.161297 275.415791,107.247786 L275.415791,107.247786 L275.415791,217.189591 L299.875671,217.189591 Z M517.26737,218 C531.727949,218 544.330746,214.737664 555.075759,208.212993 C565.820773,201.688321 574.15569,192.462028 580.080511,180.534112 C586.005332,168.606197 588.967742,154.4864 588.967742,138.174721 C588.967742,122.066938 586.005332,107.998115 580.080511,95.9682519 C574.15569,83.9383887 565.820773,74.6611213 555.075759,68.1364497 C544.330746,61.6117782 531.727949,58.3494424 517.26737,58.3494424 C502.80679,58.3494424 490.203994,61.6117782 479.45898,68.1364497 C468.713966,74.6611213 460.379049,83.9383887 454.454229,95.9682519 C448.529408,107.998115 445.566998,122.066938 445.566998,138.174721 C445.566998,154.4864 448.529408,168.606197 454.454229,180.534112 C460.379049,192.462028 468.713966,201.688321 479.45898,208.212993 C490.203994,214.737664 502.80679,218 517.26737,218 Z M516.606987,199.360595 C501.627891,199.360595 490.093988,194.315956 482.005276,184.226679 C473.916564,174.137402 469.872208,159.411134 469.872208,140.047876 C469.872208,121.092264 474.016425,106.518864 482.304858,96.3276755 C490.593291,86.1364866 502.027334,81.0408922 516.606987,81.0408922 C531.18664,81.0408922 542.570753,86.1364866 550.759325,96.3276755 C558.947897,106.518864 563.042184,121.092264 563.042184,140.047876 C563.042184,159.411134 558.997828,174.137402 550.909116,184.226679 C542.820404,194.315956 531.386361,199.360595 516.606987,199.360595 Z M680.539944,218 C684.586632,218 688.279235,217.746242 691.617753,217.238725 C694.95627,216.731209 698.345372,215.969934 701.785056,214.954901 L701.785056,214.954901 L701.785056,193.943715 C698.75004,194.958748 696.018526,195.669271 693.590513,196.075284 C691.1625,196.481298 688.430986,196.684304 685.39597,196.684304 C680.33761,196.684304 675.785086,195.821526 671.738398,194.09597 C667.69171,192.370413 664.504943,189.274562 662.178097,184.808417 C659.851252,180.342271 658.687829,174.049065 658.687829,165.9288 L658.687829,165.9288 L658.687829,82.1885671 L702.39206,82.1885671 L702.39206,62.699931 L658.687829,62.7041603 L658.687829,14.5873606 L634.104199,23.4181488 L634.104199,62.7041603 L604.361042,62.699931 L604.361042,82.1885671 L634.104199,82.1885671 L634.104199,169.27841 C634.104199,184.938921 638.008105,196.82413 645.815916,204.934038 L646.699516,205.819602 C655.096393,213.939867 666.376536,218 680.539944,218 Z M759.104218,27.5539033 L759.104218,0 L729.127792,0 L729.127792,27.5539033 L759.104218,27.5539033 Z M758.294045,217.189591 L758.294045,63.2118959 L734.799007,63.2118959 L734.799007,217.189591 L758.294045,217.189591 Z M926,217.189591 L926,197.597996 L827.517668,197.597996 L922.665897,81.2728979 L922.665897,63.2118959 L800.516485,63.2118959 L800.516485,82.8034913 L893.180976,82.8034913 L797.182382,200.046945 L797.182382,217.189591 L926,217.189591 Z" id="notiz" fill="#FFFFFF" fill-rule="nonzero"></path>
        </g>
    </g>
</svg>