<?xml version="1.0" encoding="UTF-8"?>
<svg width="512px" height="512px" viewBox="0 0 512 512" version="1.1" xmlns="http://www.w3.org/2000/svg" xmlns:xlink="http://www.w3.org/1999/xlink">
    <!-- Generator: Sketch 61.2 (89653) - https://sketch.com -->
    <title>quick-tip</title>
    <desc>Created with Sketch.</desc>
    <defs>
        <linearGradient x1="49.9999401%" y1="100%" x2="50%" y2="0%" id="linearGradient-1">
            <stop stop-color="#55F3DE" offset="0%"></stop>
            <stop stop-color="#55B9F3" offset="50.2718539%"></stop>
            <stop stop-color="#556AF3" offset="100%"></stop>
        </linearGradient>
    </defs>
    <g id="quick-tip" stroke="none" stroke-width="1" fill="none" fill-rule="evenodd">
        <g id="flash" transform="translate(80.000000, 15.000000)" fill="url(#linearGradient-1)" fill-rule="nonzero">
            <path d="M114.82,481.000007 C109.393392,481.000007 104.24271,478.608452 100.750683,474.454677 C97.2586566,470.300901 95.7830506,464.815112 96.72,459.47 L96.72,459.36 L124.83,305 L16,305 C9.83479531,304.999337 4.21844428,301.456491 1.562513,295.892699 C-1.09341827,290.328907 -0.316372508,283.734109 3.56,278.94 L222.73,8 C227.857128,1.49169211 236.693973,-0.800687475 244.338315,2.39455386 C251.982656,5.5897952 256.55956,13.4889585 255.53,21.71 C255.53,22.01 255.45,22.3 255.4,22.6 L227.19,177 L336,177 C342.165205,177.000663 347.781556,180.543509 350.437487,186.107301 C353.093418,191.671093 352.316373,198.265891 348.44,203.06 L129.24,474 C125.750929,478.408519 120.442139,480.985601 114.82,481.000007 Z" id="Path"></path>
        </g>
    </g>
</svg>