<?xml version="1.0" encoding="UTF-8" standalone="no"?>
<!-- Created with Inkscape (http://www.inkscape.org/) -->
<svg
   xmlns:svg="http://www.w3.org/2000/svg"
   xmlns="http://www.w3.org/2000/svg"
   version="1.0"
   width="800"
   height="75"
   id="svg2">
  <defs
     id="defs4" />
  <g
     transform="translate(431.42856,-3.4336112)"
     id="layer1">
    <path
       d="M 101.41844 26.063829 A 31.914894 31.914894 0 1 1  37.588654,26.063829 A 31.914894 31.914894 0 1 1  101.41844 26.063829 z"
       transform="translate(179.36733,14.869782)"
       style="opacity:1;fill:#000000;fill-opacity:1;fill-rule:evenodd;stroke:none;stroke-width:4;stroke-linecap:round;stroke-linejoin:round;stroke-miterlimit:4;stroke-dasharray:none;stroke-dashoffset:0;stroke-opacity:1"
       id="path2263" />
    <path
       d="M 101.41844 26.063829 A 31.914894 31.914894 0 1 1  37.588654,26.063829 A 31.914894 31.914894 0 1 1  101.41844 26.063829 z"
       transform="translate(99.383094,14.869782)"
       style="opacity:1;fill:#000000;fill-opacity:1;fill-rule:evenodd;stroke:none;stroke-width:4;stroke-linecap:round;stroke-linejoin:round;stroke-miterlimit:4;stroke-dasharray:none;stroke-dashoffset:0;stroke-opacity:1"
       id="path3236" />
    <path
       d="M 101.41844 26.063829 A 31.914894 31.914894 0 1 1  37.588654,26.063829 A 31.914894 31.914894 0 1 1  101.41844 26.063829 z"
       transform="translate(19.398856,14.869782)"
       style="opacity:1;fill:#000000;fill-opacity:1;fill-rule:evenodd;stroke:none;stroke-width:4;stroke-linecap:round;stroke-linejoin:round;stroke-miterlimit:4;stroke-dasharray:none;stroke-dashoffset:0;stroke-opacity:1"
       id="path3238" />
    <path
       d="M 101.41844 26.063829 A 31.914894 31.914894 0 1 1  37.588654,26.063829 A 31.914894 31.914894 0 1 1  101.41844 26.063829 z"
       transform="translate(-60.585382,14.869782)"
       style="opacity:1;fill:#000000;fill-opacity:1;fill-rule:evenodd;stroke:none;stroke-width:4;stroke-linecap:round;stroke-linejoin:round;stroke-miterlimit:4;stroke-dasharray:none;stroke-dashoffset:0;stroke-opacity:1"
       id="path3240" />
    <path
       d="M 101.41844 26.063829 A 31.914894 31.914894 0 1 1  37.588654,26.063829 A 31.914894 31.914894 0 1 1  101.41844 26.063829 z"
       transform="translate(-140.56962,14.869782)"
       style="opacity:1;fill:#000000;fill-opacity:1;fill-rule:evenodd;stroke:none;stroke-width:4;stroke-linecap:round;stroke-linejoin:round;stroke-miterlimit:4;stroke-dasharray:none;stroke-dashoffset:0;stroke-opacity:1"
       id="path3242" />
    <path
       d="M 101.41844 26.063829 A 31.914894 31.914894 0 1 1  37.588654,26.063829 A 31.914894 31.914894 0 1 1  101.41844 26.063829 z"
       transform="translate(-220.55386,14.869782)"
       style="opacity:1;fill:#000000;fill-opacity:1;fill-rule:evenodd;stroke:none;stroke-width:4;stroke-linecap:round;stroke-linejoin:round;stroke-miterlimit:4;stroke-dasharray:none;stroke-dashoffset:0;stroke-opacity:1"
       id="path3244" />
    <path
       d="M 101.41844 26.063829 A 31.914894 31.914894 0 1 1  37.588654,26.063829 A 31.914894 31.914894 0 1 1  101.41844 26.063829 z"
       transform="translate(-300.53809,14.869782)"
       style="opacity:1;fill:#000000;fill-opacity:1;fill-rule:evenodd;stroke:none;stroke-width:4;stroke-linecap:round;stroke-linejoin:round;stroke-miterlimit:4;stroke-dasharray:none;stroke-dashoffset:0;stroke-opacity:1"
       id="path3246" />
    <path
       d="M 101.41844 26.063829 A 31.914894 31.914894 0 1 1  37.588654,26.063829 A 31.914894 31.914894 0 1 1  101.41844 26.063829 z"
       transform="translate(-380.52233,14.869782)"
       style="opacity:1;fill:#000000;fill-opacity:1;fill-rule:evenodd;stroke:none;stroke-width:4;stroke-linecap:round;stroke-linejoin:round;stroke-miterlimit:4;stroke-dasharray:none;stroke-dashoffset:0;stroke-opacity:1"
       id="path3248" />
    <path
       d="M 101.41844 26.063829 A 31.914894 31.914894 0 1 1  37.588654,26.063829 A 31.914894 31.914894 0 1 1  101.41844 26.063829 z"
       transform="translate(-460.50657,14.869782)"
       style="opacity:1;fill:#000000;fill-opacity:1;fill-rule:evenodd;stroke:none;stroke-width:4;stroke-linecap:round;stroke-linejoin:round;stroke-miterlimit:4;stroke-dasharray:none;stroke-dashoffset:0;stroke-opacity:1"
       id="path3250" />
    <path
       d="M 101.41844 26.063829 A 31.914894 31.914894 0 1 1  37.588654,26.063829 A 31.914894 31.914894 0 1 1  101.41844 26.063829 z"
       transform="translate(259.35157,14.869782)"
       style="opacity:1;fill:#000000;fill-opacity:1;fill-rule:evenodd;stroke:none;stroke-width:4;stroke-linecap:round;stroke-linejoin:round;stroke-miterlimit:4;stroke-dasharray:none;stroke-dashoffset:0;stroke-opacity:1"
       id="path3252" />
    <path
       d="M 65.104979,40.917986 L 87.698729,57.105486 L 87.698729,48.636736 L 112.69873,48.636736 L 112.69873,33.230486 L 87.698729,33.230486 L 87.698729,24.761735 L 65.104979,40.917986 z "
       style="opacity:1;fill:#ffffff;fill-opacity:1;fill-rule:evenodd;stroke:none;stroke-width:4;stroke-linecap:round;stroke-linejoin:round;stroke-miterlimit:4;stroke-dasharray:none;stroke-dashoffset:0;stroke-opacity:1"
       id="rect3260" />
    <path
       d="M 32.599342,40.701317 L 10.005592,24.513817 L 10.005592,32.982567 L -14.994408,32.982567 L -14.994407,48.388817 L 10.005592,48.388817 L 10.005592,56.857567 L 32.599342,40.701317 z "
       style="opacity:1;fill:#ffffff;fill-opacity:1;fill-rule:evenodd;stroke:none;stroke-width:4;stroke-linecap:round;stroke-linejoin:round;stroke-miterlimit:4;stroke-dasharray:none;stroke-dashoffset:0;stroke-opacity:1"
       id="path3266" />
    <path
       d="M -94.864534,40.917986 L -72.270784,57.105486 L -72.270784,48.636736 L -47.270784,48.636736 L -47.270784,33.230486 L -72.270784,33.230486 L -72.270784,24.761736 L -94.864534,40.917986 z "
       style="opacity:1;fill:#ffffff;fill-opacity:1;fill-rule:evenodd;stroke:none;stroke-width:4;stroke-linecap:round;stroke-linejoin:round;stroke-miterlimit:4;stroke-dasharray:none;stroke-dashoffset:0;stroke-opacity:1"
       id="path3268" />
    <path
       d="M -151.03679,64.730486 L -167.22429,42.136736 L -158.75554,42.136736 L -158.75554,17.136736 L -143.34929,17.136736 L -143.34929,42.136736 L -134.88054,42.136736 L -151.03679,64.730486 z "
       style="opacity:1;fill:#ffffff;fill-opacity:1;fill-rule:evenodd;stroke:none;stroke-width:4;stroke-linecap:round;stroke-linejoin:round;stroke-miterlimit:4;stroke-dasharray:none;stroke-dashoffset:0;stroke-opacity:1"
       id="path3270" />
    <path
       d="M -231.02155,64.730486 L -247.20905,42.136736 L -238.7403,42.136736 L -238.7403,17.136736 L -223.33405,17.136736 L -223.33405,42.136736 L -214.8653,42.136736 L -231.02155,64.730486 z "
       style="opacity:1;fill:#ffffff;fill-opacity:1;fill-rule:evenodd;stroke:none;stroke-width:4;stroke-linecap:round;stroke-linejoin:round;stroke-miterlimit:4;stroke-dasharray:none;stroke-dashoffset:0;stroke-opacity:1"
       id="path3272" />
    <path
       d="M -311.0063,17.136736 L -327.1938,39.730486 L -318.72505,39.730486 L -318.72505,64.730486 L -303.3188,64.730486 L -303.3188,39.730486 L -294.85005,39.730486 L -311.0063,17.136736 z "
       style="opacity:1;fill:#ffffff;fill-opacity:1;fill-rule:evenodd;stroke:none;stroke-width:4;stroke-linecap:round;stroke-linejoin:round;stroke-miterlimit:4;stroke-dasharray:none;stroke-dashoffset:0;stroke-opacity:1"
       id="path3274" />
    <path
       d="M -390.99106,17.136736 L -407.17856,39.730486 L -398.70981,39.730486 L -398.70981,64.730486 L -383.30356,64.730486 L -383.30356,39.730486 L -374.83481,39.730486 L -390.99106,17.136736 z "
       style="opacity:1;fill:#ffffff;fill-opacity:1;fill-rule:evenodd;stroke:none;stroke-width:4;stroke-linecap:round;stroke-linejoin:round;stroke-miterlimit:4;stroke-dasharray:none;stroke-dashoffset:0;stroke-opacity:1"
       id="path3276" />
    <path
       d="M 192.6835,40.949236 L 170.08975,24.761736 L 170.08975,33.230486 L 145.08975,33.230486 L 145.08975,48.636736 L 170.08975,48.636736 L 170.08975,57.105486 L 192.6835,40.949236 z "
       style="opacity:1;fill:#ffffff;fill-opacity:1;fill-rule:evenodd;stroke:none;stroke-width:4;stroke-linecap:round;stroke-linejoin:round;stroke-miterlimit:4;stroke-dasharray:none;stroke-dashoffset:0;stroke-opacity:1"
       id="path3278" />
    <text
       x="248.34419"
       y="57.019249"
       style="font-size:44.94322968px;font-style:normal;font-weight:bold;text-align:center;text-anchor:middle;opacity:1;fill:#ffffff;fill-opacity:1;stroke:none;stroke-width:1px;stroke-linecap:butt;stroke-linejoin:miter;stroke-opacity:1;font-family:Arial"
       id="text3280"
       xml:space="preserve"><tspan
         x="248.34419"
         y="57.019249"
         id="tspan3282">B</tspan></text>
    <text
       x="328.95386"
       y="57.019249"
       style="font-size:44.94322968px;font-style:normal;font-weight:bold;text-align:center;text-anchor:middle;opacity:1;fill:#ffffff;fill-opacity:1;stroke:none;stroke-width:1px;stroke-linecap:butt;stroke-linejoin:miter;stroke-opacity:1;font-family:Arial"
       id="text3284"
       xml:space="preserve"><tspan
         x="328.95386"
         y="57.019249"
         id="tspan3286">A</tspan></text>
  </g>
</svg>
