<svg viewBox="0 0 111 151" version="1.1" xmlns="http://www.w3.org/2000/svg" xmlns:xlink="http://www.w3.org/1999/xlink">
  <defs>
    <linearGradient x1="-3.48177083%" y1="17.0266727%" x2="100.833333%" y2="92.8868033%" id="linearGradient-1">
      <stop stop-color="#FFFFFF" stop-opacity="0.1" offset="0%" />
      <stop stop-color="#FFFFFF" stop-opacity="0" offset="100%" />
    </linearGradient>
    <path
      d="M95.7984919,33.6246194 C95.5859256,32.3610745 94.6848395,31.3206592 93.4615125,30.9262876 C92.2381855,30.5319161 90.8962602,30.8492378 89.9812105,31.7492661 L72.2727216,49.5651223 L58.2428077,23.0544463 C57.6801918,21.9189555 56.5194912,21.2001264 55.2486188,21.2001264 C53.9777463,21.2001264 52.8170458,21.9189555 52.2544298,23.0544463 L44.6406351,37.5458126 L25.3922776,1.91410025 C23.852409,-0.984173003 19.489448,-0.216983024 18.9761585,3.02226355 L0.497735304,121.16952 L50.0301752,148.873603 C53.1471684,150.578603 56.9223279,150.578603 60.0393211,148.873603 L109.999502,121.16952 L95.7984919,33.6246194 Z"
      id="path-2" />
  </defs>
  <g id="Page-1" stroke="none" stroke-width="1" fill="none" fill-rule="evenodd">
    <g id="styleguide" transform="translate(-664.000000, -1272.000000)">
      <g id="Group-16" transform="translate(40.000000, 1187.000000)">
        <g id="Group-9" transform="translate(114.000000, 0.000000)">
          <g id="Group-26" transform="translate(405.000000, 1.000000)">
            <g id="logo_lockup_firebase_vertical" transform="translate(105.193370, 83.977901)">
              <g id="_Group_">
                <mask id="mask-3" fill="white">
                  <use xlink:href="#path-2" />
                </mask>
                <use id="_Path_5" fill="url(#linearGradient-1)" fill-rule="nonzero" xlink:href="#path-2" />
                <g id="_Group_2" mask="url(#mask-3)">
                  <g transform="translate(-6.346125, -0.160154)">
                    <g id="_Group_3" stroke-width="1" fill="none" fill-rule="evenodd">
                      <path
                        d="M6.84386044,121.329674 L25.4078319,3.18241769 C25.9211214,-0.0568288873 30.2840824,-0.824018866 31.823951,2.07425439 L50.9867602,37.7059667 L58.600555,23.2146005 C59.189165,22.0849984 60.360174,21.3760986 61.637518,21.3760986 C62.9148621,21.3760986 64.0858711,22.0849984 64.6744811,23.2146005 L116.345627,121.329674 L6.84386044,121.329674 Z"
                        id="_Path_" fill="#FFA000" fill-rule="nonzero" />
                      <g id="_Group_4" transform="translate(0.000000, 30.119310)">
                        <polygon id="Shape" fill="#F57C00" fill-rule="nonzero"
                          points="70.8339555 45.1789654 50.901212 7.58665646 6.84386044 91.2103641" />
                      </g>
                    </g>
                    <g id="_Group_5" stroke-width="1" fill="none" fill-rule="evenodd"
                      transform="translate(3.421930, 23.299844)">
                      <g id="_Group_6" transform="translate(3.421930, 7.387755)" fill-rule="nonzero" fill="#FFCA28">
                        <path
                          d="M109.501767,90.6420753 L95.3007566,3.09717436 C95.0881903,1.8336295 94.1871042,0.793214154 92.9637772,0.398842606 C91.7404502,0.00447105695 90.3985249,0.321792836 89.4834752,1.22182108 L0,90.6420753 L49.5324399,118.346158 C52.6494331,120.051158 56.4245926,120.051158 59.5415858,118.346158 L109.501767,90.6420753 Z"
                          id="_Path_2" />
                      </g>
                    </g>
                    <path
                      d="M102.144617,33.7847735 C101.932051,32.5212286 101.030965,31.4808133 99.8076376,31.0864418 C98.5843106,30.6920702 97.2423854,31.009392 96.3273356,31.9094202 L78.6188467,49.7252764 L64.5889329,23.2146005 C64.0263169,22.0791096 62.8656164,21.3602806 61.5947439,21.3602806 C60.3238715,21.3602806 59.1631709,22.0791096 58.600555,23.2146005 L50.9867602,37.7059667 L31.7384028,2.07425439 C30.1985342,-0.824018866 25.8355731,-0.0568288873 25.3222836,3.18241769 L6.84386044,121.329674 L6.75831218,121.329674 L6.84386044,121.414918 L7.35714997,121.670648 L78.5332985,50.5777097 L96.3273356,32.8470969 C97.2423854,31.9470686 98.5843106,31.6297468 99.8076376,32.0241184 C101.030965,32.4184899 101.932051,33.4589053 102.144617,34.7224501 L116.174531,121.414918 L116.345627,121.329674 L102.144617,33.7847735 Z M7.01495695,121.159188 L25.4078319,4.034851 C25.9211214,0.795604422 30.2840824,0.0284144437 31.823951,2.9266877 L50.9867602,38.5584 L58.600555,24.0670338 C59.189165,22.9374317 60.360174,22.2285319 61.637518,22.2285319 C62.9148621,22.2285319 64.0858711,22.9374317 64.6744811,24.0670338 L78.362202,49.9810064 L7.01495695,121.159188 Z"
                      id="_Compound_Path_" fill-opacity="0.2" fill="#FFFFFF" fill-rule="nonzero" />
                    <path
                      d="M66.3854462,148.181324 C63.2684531,149.886324 59.4932935,149.886324 56.3763003,148.181324 L6.92940869,120.562484 L6.84386044,121.329674 L56.3763003,149.033757 C59.4932935,150.738757 63.2684531,150.738757 66.3854462,149.033757 L116.345627,121.329674 L116.260079,120.562484 L66.3854462,148.181324 Z"
                      id="_Path_3" fill="#A52714" fill-rule="nonzero" opacity="0.2" />
                  </g>
                </g>
                <polygon id="_Path_4" mask="url(#mask-3)"
                  points="-26.8777064 -6.69547618 137.374944 -6.69547618 137.374944 156.971719 -26.8777064 156.971719" />
                <path
                  d="M95.7984919,33.6246194 C95.5859256,32.3610745 94.6848395,31.3206592 93.4615125,30.9262876 C92.2381855,30.5319161 90.8962602,30.8492378 89.9812105,31.7492661 L72.2727216,49.5651223 L58.2428077,23.0544463 C57.6801918,21.9189555 56.5194912,21.2001264 55.2486188,21.2001264 C53.9777463,21.2001264 52.8170458,21.9189555 52.2544298,23.0544463 L44.6406351,37.5458126 L25.3922776,1.91410025 C23.852409,-0.984173003 19.489448,-0.216983024 18.9761585,3.02226355 L0.497735304,121.16952 L50.0301752,148.873603 C53.1471684,150.578603 56.9223279,150.578603 60.0393211,148.873603 L109.999502,121.16952 L95.7984919,33.6246194 Z"
                  id="_Path_5" fill="url(#linearGradient-1)" fill-rule="nonzero" mask="url(#mask-3)" />
              </g>
            </g>
          </g>
        </g>
      </g>
    </g>
  </g>
</svg>
