<svg xmlns="http://www.w3.org/2000/svg" viewBox="0 0 266 190"><defs><linearGradient x1="50.001%" y1="0%" x2="50.001%" y2="100%" id="a"><stop stop-color="#4F46E5" offset="0%"/><stop stop-color="#9C96FF" offset="100%"/></linearGradient><linearGradient x1="49.999%" y1="0%" x2="49.999%" y2="100%" id="b"><stop stop-color="#4F46E5" offset="0%"/><stop stop-color="#9C96FF" offset="100%"/></linearGradient><linearGradient x1="81.022%" y1="2.896%" x2="18.978%" y2="97.104%" id="c"><stop stop-color="#4F46E5" offset="0%"/><stop stop-color="#9C96FF" offset="100%"/></linearGradient><linearGradient x1="81.022%" y1="2.896%" x2="18.978%" y2="97.104%" id="d"><stop stop-color="#4F46E5" offset="0%"/><stop stop-color="#9C96FF" offset="100%"/></linearGradient></defs><g stroke-width="5" fill="none" fill-rule="evenodd"><path d="M259.75 25.093c0-13.843-11.223-25.065-25.066-25.065-13.844 0-25.066 11.222-25.066 25.065v133.683c0 13.843 11.222 25.065 25.066 25.065 13.843 0 25.065-11.222 25.065-25.065V25.093Z" stroke="url(#a)" transform="translate(3 3)"/><path d="M154.892 25.093c0-13.843-11.222-25.065-25.066-25.065-13.843 0-25.065 11.222-25.065 25.065v133.683c0 13.843 11.222 25.065 25.065 25.065 13.844 0 25.066-11.222 25.066-25.065V25.093Z" stroke="url(#b)" transform="translate(3 3)"/><path d="M254.435 40.512c8.53-10.903 6.607-26.656-4.296-35.186-10.903-8.53-26.656-6.608-35.187 4.295L110.283 143.399c-8.53 10.903-6.607 26.657 4.295 35.187 10.903 8.53 26.657 6.607 35.187-4.295l104.67-133.78Z" stroke="url(#c)" transform="translate(3 3)"/><path d="M149.477 40.516c8.53-10.902 6.607-26.656-4.295-35.186-10.903-8.53-26.657-6.608-35.187 4.295L5.325 143.403c-8.53 10.903-6.607 26.657 4.296 35.187 10.902 8.53 26.656 6.607 35.186-4.295l104.67-133.78Z" stroke="url(#d)" transform="translate(3 3)"/></g></svg>